<svg version="1.1" id="Layer_1" xmlns="http://www.w3.org/2000/svg" xmlns:xlink="http://www.w3.org/1999/xlink" x="0px" y="0px"
	 width="100%" viewBox="0 0 1008 1024" enable-background="new 0 0 1008 1024" xml:space="preserve">
<path fill="#000000" opacity="1.000000" stroke="none" 
	d="
M506.339783,896.000122 
	C506.346405,926.499817 506.349701,956.499451 506.361084,986.499146 
	C506.363770,993.526428 506.369080,993.354187 496.790222,993.757629 
	C490.931000,994.004456 491.968262,990.054321 491.966858,986.695190 
	C491.941010,924.529236 491.943237,862.363281 491.939789,800.197327 
	C491.939392,793.277771 491.940033,793.261780 485.056763,793.260559 
	C403.224335,793.246094 321.391907,793.235046 239.559464,793.229248 
	C232.302521,793.228760 232.291840,793.248962 232.291519,800.709351 
	C232.288849,862.708679 232.302719,924.707947 232.239548,986.707214 
	C232.237335,988.876343 233.507477,992.269714 230.885040,992.981445 
	C227.151093,993.994873 222.878128,994.541199 219.169220,992.751587 
	C217.196823,991.799866 217.940598,989.138306 217.937027,987.199585 
	C217.902634,968.533203 217.925522,949.866760 217.923920,931.200317 
	C217.920181,887.700806 217.913971,844.201294 217.903656,800.701782 
	C217.901886,793.243347 217.890228,793.229980 210.578842,793.229431 
	C148.912857,793.224792 87.246841,793.239624 25.580921,793.173340 
	C23.074600,793.170654 19.526758,794.581909 18.287384,791.682068 
	C16.800240,788.202515 17.432819,784.152771 18.055580,780.363708 
	C18.245522,779.208008 19.394922,778.964600 20.412075,778.905212 
	C21.907511,778.817810 23.408844,778.805786 24.907665,778.805786 
	C86.573654,778.803894 148.239655,778.807617 209.905640,778.808289 
	C217.903824,778.808411 217.914856,778.802429 217.913834,770.987244 
	C217.903229,689.488281 217.889526,607.989380 217.874161,526.490417 
	C217.872787,519.237305 217.864532,519.228149 210.784241,519.226746 
	C148.784912,519.214478 86.785576,519.218933 24.786335,519.143738 
	C22.478254,519.140991 19.088308,520.455017 18.149235,517.401978 
	C17.040873,513.798645 17.232658,509.821533 18.178909,506.062439 
	C18.443335,505.011963 19.687281,504.853668 20.697065,504.807831 
	C22.194448,504.739777 23.695461,504.732635 25.194937,504.732391 
	C87.027588,504.722992 148.860245,504.718506 210.692902,504.709351 
	C217.822617,504.708313 217.869034,504.697418 217.871582,497.595795 
	C217.901123,415.430176 217.917786,333.264557 217.929565,251.098923 
	C217.930450,244.940948 217.104965,244.398407 210.934906,244.545914 
	C200.109283,244.804718 189.277115,244.866043 178.447601,244.873291 
	C134.614777,244.902618 90.781898,244.893692 46.949055,244.863907 
	C38.624001,244.858261 30.299173,244.649918 21.973989,244.627014 
	C19.183367,244.619339 17.797222,243.763214 17.621529,240.636353 
	C17.060350,230.648895 16.943443,230.656342 26.920002,230.657578 
	C87.919334,230.665146 148.918671,230.672104 209.917999,230.679916 
	C217.923294,230.680939 217.906921,230.682709 217.907425,222.916931 
	C217.911316,161.250961 217.918930,99.584991 217.934372,37.919018 
	C217.936203,30.610142 223.651398,27.140650 230.449417,30.216021 
	C231.959625,30.899225 232.226364,32.070686 232.250809,33.447788 
	C232.292191,35.780388 232.299622,38.113808 232.299744,40.446884 
	C232.302887,101.446190 232.300522,162.445496 232.307724,223.444809 
	C232.308563,230.641418 232.331604,230.668686 239.272293,230.668747 
	C321.604706,230.669388 403.937195,230.616959 486.269348,230.763992 
	C491.280701,230.772934 491.985870,228.754623 491.980499,224.534058 
	C491.903595,163.534851 491.945465,102.535492 491.958893,41.536175 
	C491.959106,40.536186 491.958588,39.536198 491.959808,38.536209 
	C491.969879,30.358646 496.328217,27.387335 504.238556,30.068222 
	C505.804016,30.598789 506.268219,31.628132 506.301392,33.061600 
	C506.336090,34.560795 506.336884,36.060986 506.337128,37.560741 
	C506.346893,99.726692 506.352112,161.892639 506.367310,224.058594 
	C506.368896,230.617630 506.395538,230.645447 513.092529,230.646866 
	C595.424927,230.664154 677.757385,230.674057 760.089783,230.680847 
	C766.616272,230.681381 766.631653,230.664001 766.632324,223.894516 
	C766.638489,161.895187 766.638794,99.895874 766.641296,37.896549 
	C766.641602,30.511898 771.558105,27.323393 778.447205,30.168150 
	C779.738770,30.701477 780.228821,31.580654 780.271667,32.830635 
	C780.328735,34.495667 780.345398,36.162762 780.345459,37.828972 
	C780.346985,99.828285 780.342407,161.827606 780.345947,223.826920 
	C780.346313,230.658905 780.366638,230.669006 787.186401,230.668747 
	C849.519043,230.666428 911.851685,230.645981 974.184265,230.712173 
	C976.471741,230.714600 979.838318,229.321991 980.795837,232.446289 
	C981.851257,235.890121 981.927490,239.799728 980.611328,243.250946 
	C979.788147,245.409515 977.157959,244.822876 975.223022,244.805649 
	C966.727478,244.730087 958.232300,244.434875 949.737793,244.461594 
	C929.075989,244.526581 908.414734,244.811172 887.752930,244.850616 
	C860.763245,244.902145 833.774963,244.110107 806.782104,244.829254 
	C799.629822,245.019821 792.460999,244.719284 785.303223,244.520920 
	C781.511108,244.415833 780.169556,245.860184 780.247742,249.821655 
	C780.497559,262.483215 780.337585,275.152832 780.337708,287.819366 
	C780.338562,357.818604 780.338989,427.817841 780.342590,497.817078 
	C780.342957,504.734161 780.352295,504.728912 787.136963,504.729065 
	C849.469604,504.730408 911.802307,504.720154 974.134888,504.789825 
	C976.435669,504.792389 979.801575,503.476898 980.745789,506.594452 
	C981.841797,510.213196 981.687805,514.176758 980.653625,517.923523 
	C980.366516,518.963745 979.119568,519.105042 978.102661,519.138123 
	C976.437500,519.192505 974.770386,519.203064 973.104065,519.203125 
	C911.271423,519.207397 849.438721,519.207886 787.606079,519.210205 
	C780.357056,519.210449 780.349243,519.214111 780.349060,526.202881 
	C780.347229,608.201965 780.346558,690.201050 780.350525,772.200134 
	C780.350830,778.789978 780.367798,778.812622 786.952515,778.812866 
	C849.285156,778.815002 911.617859,778.795593 973.950439,778.856995 
	C976.274048,778.859314 979.648193,777.524963 980.684387,780.428345 
	C981.955994,783.990906 981.791016,788.049927 980.657715,791.729797 
	C979.994202,793.884094 977.547058,793.206848 975.799927,793.211548 
	C962.966858,793.246094 950.133606,793.210327 937.300415,793.210266 
	C887.467651,793.210022 837.634827,793.210266 787.802063,793.222595 
	C780.338867,793.224426 780.333862,793.254395 780.333618,800.503967 
	C780.331177,862.836609 780.341736,925.169250 780.279541,987.501831 
	C780.277527,989.477905 781.481995,992.688599 778.813477,993.166382 
	C775.166748,993.819336 771.113037,994.464478 767.559692,992.898315 
	C765.782349,992.114929 766.661560,989.551086 766.660706,987.789978 
	C766.634033,931.790588 766.645569,875.791199 766.650085,819.791809 
	C766.650635,812.958557 766.362000,806.109741 766.736816,799.297241 
	C767.007812,794.370972 765.165405,793.120483 760.451660,793.133728 
	C707.952576,793.281372 655.453064,793.237915 602.953613,793.244751 
	C572.953979,793.248657 542.954285,793.243408 512.954651,793.258606 
	C506.383545,793.261963 506.337067,793.350525 506.337769,800.020569 
	C506.341125,831.847046 506.339325,863.673584 506.339783,896.000122 
M534.162170,288.648499 
	C511.246277,316.935272 501.137817,349.459625 504.691711,385.462524 
	C508.685028,425.916565 527.756592,458.426605 561.213928,481.800110 
	C592.698792,503.795593 627.867126,509.689392 665.072083,502.214203 
	C688.009827,497.605560 708.366638,486.770020 725.399841,470.588409 
	C761.652954,436.147827 775.421753,394.116119 765.807495,344.980591 
	C760.290588,316.785004 746.241333,293.037323 724.534607,274.218109 
	C691.405945,245.496353 652.981873,234.629272 609.883911,243.094131 
	C579.651489,249.032104 554.540283,264.454681 534.162170,288.648499 
M470.501770,293.989838 
	C448.557892,265.286865 419.744507,247.872162 384.123627,242.052917 
	C349.437103,236.386307 317.307983,243.854919 288.859589,264.076477 
	C249.325272,292.178070 230.259247,330.918427 232.145233,379.722931 
	C233.486359,414.428009 247.327408,443.572815 271.705780,467.664368 
	C312.270081,507.751465 374.264496,516.172485 421.954163,491.672028 
	C470.226196,466.872406 495.246368,426.563904 496.427551,372.479523 
	C497.050415,343.959869 487.655792,317.848541 470.501770,293.989838 
M451.863190,744.362427 
	C486.867859,710.619019 500.545898,669.766235 492.018585,621.870789 
	C486.783936,592.468994 472.283875,568.086975 449.938721,548.323608 
	C420.608521,522.382202 386.157593,511.430756 347.554382,515.621948 
	C314.285278,519.234009 285.813232,533.611389 263.464508,559.070068 
	C234.094925,592.526733 223.995132,631.548889 232.755951,674.708862 
	C247.120773,745.476990 317.236328,791.165894 388.047394,777.061157 
	C412.169037,772.256409 433.175079,761.340576 451.863190,744.362427 
M739.502869,732.007690 
	C762.601135,702.350891 772.544800,668.962891 767.593384,631.519653 
	C762.867188,595.779419 746.008362,566.609375 717.704102,544.618225 
	C691.095398,523.944397 660.603149,514.645508 626.700439,517.135620 
	C602.891052,518.884521 580.933411,526.146729 561.485718,539.813721 
	C530.916199,561.296570 511.779449,590.539612 506.012695,627.658203 
	C499.045715,672.502502 511.574585,711.725708 543.827820,743.529663 
	C571.761719,771.074402 606.025085,783.584778 645.535706,780.890442 
	C683.734009,778.285645 714.506409,761.493713 739.502869,732.007690 
z"/>
</svg>